{
  "title": "Welcome Back (2015) x264 720p Desi ScrRip AAC 5.1[HDMaN ExCluSiv",
  "uid": 12356484,
  "size": 1576504975,
  "categoryP": "video",
  "categoryS": "hd___movies",
  "magnet": "?xt=urn:btih:28da1435be6365876590c084ec49b0c2697adf2b&amp;dn=Welcome+Back+%282015%29+x264+720p+Desi+ScrRip+AAC+5.1%5BHDMaN+ExCluSiv&amp;tr=udp%3A%2F%2Ftracker.openbittorrent.com%3A80&amp;tr=udp%3A%2F%2Fopen.demonii.com%3A1337&amp;tr=udp%3A%2F%2Ftracker.coppersurfer.tk%3A6969&amp;tr=udp%3A%2F%2Fexodus.desync.com%3A6969",
  "seeders": 84,
  "leechers": 22,
  "uploader": "Urmit",
  "files": 11,
  "time": 1441482336,
  "description": "[center][img]http://extraimago.com/images/2015/09/04/welcome-back-official-poster.jpg[/img]\n\n[size=6][color=blue][b]Welcome Back (2015) x264 720p Desi ScrRip AAC 5.1[HDMaN ExCluSive][/b][/color][/size]\n\n[code]Format                                   : Matroska\nFormat version                           : Version 2\nFile size                                : 1.47 GiB\nDuration                                 : 2h 30mn\nOverall bit rate                         : 1 393 Kbps\nEncoded date                             : UTC \nWriting application                      : HandBrake 0.10.2 2015060900\nWriting library                          : Lavf55.12.0\n\n[ * Video ]\nID                                       : 1\nFormat                                   : AVC\nFormat/Info                              : Advanced Video Codec\nFormat profile                           : &lt;a class=&quot;__cf_email__&quot; href=&quot;/cdn-cgi/l/email-protection&quot; data-cfemail=&quot;6921000e0129255d4758&quot;&gt;[email&amp;#160;protected]&lt;/a&gt;&lt;script data-cfhash='f9e31' type=&quot;text/javascript&quot;&gt;\n/* &lt;![CDATA[ */!function(){try{var t=&quot;currentScript&quot;in document?document.currentScript:function(){for(var t=document.getElementsByTagName(&quot;script&quot;),e=t.length;e--;)if(t[e].getAttribute(&quot;data-cfhash&quot;))return t[e]}();if(t&amp;&amp;t.previousSibling){var e,r,n,i,c=t.previousSibling,a=c.getAttribute(&quot;data-cfemail&quot;);if(a){for(e=&quot;&quot;,r=parseInt(a.substr(0,2),16),n=2;a.length-n;n+=2)i=parseInt(a.substr(n,2),16)^r,e+=String.fromCharCode(i);e=document.createTextNode(e),c.parentNode.replaceChild(e,c)}t.parentNode.removeChild(t);}}catch(u){}}()/* ]]&gt; */&lt;/script&gt;\nFormat settings, CABAC                   : Yes\nFormat settings, ReFrames                : 4 frames\nCodec ID                                 : V_MPEG4/ISO/AVC\nDuration                                 : 2h 30mn\nBit rate                                 : 1 166 Kbps\nWidth                                    : 1 280 pixels\nHeight                                   : 608 pixels\nDisplay aspect ratio                     : 2.105\nFrame rate mode                          : Constant\nFrame rate                               : 25.000 fps\nColor space                              : YUV\nChroma subsampling                       : 4:2:0\nBit depth                                : 8 bits\nScan type                                : Progressive\nBits/(Pixel*Frame)                       : 0.060\nStream size                              : 1.20 GiB (82%)\nWriting library                          : x264 core 142 r2479 dd79a61\nDefault                                  : Yes\nForced                                   : No\nColor range                              : Limited\nColor primaries                          : BT.709\nTransfer characteristics                 : BT.709\nMatrix coefficients                      : BT.709\n\n[ * Audio ]\nID                                       : 2\nFormat                                   : AC-3\nFormat/Info                              : Audio Coding 3\nMode extension                           : CM (complete main)\nFormat settings, Endianness              : Big\nCodec ID                                 : A_AC3\nDuration                                 : 2h 30mn\nBit rate mode                            : Constant\nBit rate                                 : 224 Kbps\nChannel(s)                               : 6 channels\nChannel positions                        : Front: L C R, Side: L R, LFE\nSampling rate                            : 48.0 KHz\nCompression mode                         : Lossy\nDelay relative to video                  : 27ms\nStream size                              : 242 MiB (16%)\nTitle                                    : -=HDMaN=-\nDefault                                  : Yes\nForced                                   : No\n\nNote: &quot;JPEG&quot; less quality, don't judge by this.[/code]\n\n\n[img]http://t1.someimage.com/aSKfSkJ.jpg[/img]\n[img]http://t1.someimage.com/S01EBAI.jpg[/img]\n[img]http://t1.someimage.com/OisH7SD.jpg[/img]\n[img]http://t1.someimage.com/9vz1PUt.jpg[/img][/center]",
  "parsed": {
    "xt": "urn:btih:28da1435be6365876590c084ec49b0c2697adf2b",
    "dn": "Welcome Back (2015) x264 720p Desi ScrRip AAC 5.1[HDMaN ExCluSiv",
    "tr": [
      "udp://exodus.desync.com:6969",
      "udp://open.demonii.com:1337",
      "udp://tracker.coppersurfer.tk:6969",
      "udp://tracker.openbittorrent.com:80"
    ],
    "infoHash": "28da1435be6365876590c084ec49b0c2697adf2b",
    "infoHashBuffer": {
      "type": "Buffer",
      "data": [
        40,
        218,
        20,
        53,
        190,
        99,
        101,
        135,
        101,
        144,
        192,
        132,
        236,
        73,
        176,
        194,
        105,
        122,
        223,
        43
      ]
    },
    "name": "Welcome Back (2015) x264 720p Desi ScrRip AAC 5.1[HDMaN ExCluSiv",
    "announce": [
      "udp://exodus.desync.com:6969",
      "udp://open.demonii.com:1337",
      "udp://tracker.coppersurfer.tk:6969",
      "udp://tracker.openbittorrent.com:80"
    ],
    "urlList": []
  },
  "previous": 106,
  "peers": 2,
  "last_updated": "2016-12-24T20:28:29.627Z"
}